<svg width="189" height="122" viewBox="0 0 189 122" fill="none" xmlns="http://www.w3.org/2000/svg">
<path d="M19.104 46.208C19.104 49.216 18.688 53.216 17.856 58.208C18.24 57.888 18.816 57.344 19.584 56.576C20.48 55.68 22.272 54.368 24.96 52.64L26.4 51.584L29.28 50.144L32.448 48.032C32.32 47.904 32.48 47.584 32.928 47.072C34.144 44.96 34.848 43.104 35.04 41.504C35.04 40.672 34.912 40.064 34.656 39.68C34.4 39.232 33.6 38.944 32.256 38.816C32.128 38.688 31.52 38.528 30.432 38.336C27.808 38.336 26.048 38.496 25.152 38.816C24.32 39.136 23.68 39.296 23.232 39.296L21.792 39.68L20.16 39.776L19.776 42.368C19.776 42.432 19.648 43.072 19.392 44.288C19.392 44.736 19.296 45.376 19.104 46.208ZM35.424 88.64C34.464 88.32 33.12 87.392 31.392 85.856C31.072 85.408 30.24 84.64 28.896 83.552C27.616 82.784 26.016 81.28 24.096 79.04C24.096 78.976 23.872 78.464 23.424 77.504C22.656 76.8 21.92 75.392 21.216 73.28C21.152 73.216 21.056 73.088 20.928 72.896C20.8 72.704 20.576 72.416 20.256 72.032C20 71.584 19.712 70.848 19.392 69.824C19.072 68.8 18.432 67.68 17.472 66.464H17.088C17.088 66.848 16.992 67.392 16.8 68.096V70.016L16.224 75.584L14.784 84.896C15.04 85.408 15.04 86.272 14.784 87.488C14.784 88 14.624 88.832 14.304 89.984C13.984 91.136 13.504 91.904 12.864 92.288C12.224 92.672 10.976 92.736 9.12 92.48C8.48 92.224 7.584 91.328 6.432 89.792C5.984 89.6 5.344 88.576 4.512 86.72C4.64 85.568 4.672 84.864 4.608 84.608C4.544 84.288 4.512 83.904 4.512 83.456C4.512 83.008 4.544 82.72 4.608 82.592C4.48 82.72 4.48 82.08 4.608 80.672V80C4.608 79.744 4.8 78.72 5.184 76.928C5.184 75.584 5.184 74.656 5.184 74.144C5.248 73.568 5.472 72.896 5.856 72.128V69.536L5.952 66.944C6.336 65.792 6.528 64.448 6.528 62.912C6.656 62.144 6.72 61.408 6.72 60.704C6.784 59.936 6.912 59.104 7.104 58.208C7.104 56.8 7.2 55.744 7.392 55.04C7.584 54.272 7.68 53.76 7.68 53.504C7.744 53.184 7.808 52.704 7.872 52.064L8.544 47.936L8.832 41.888L7.68 41.12C5.632 40.288 4.192 39.456 3.36 38.624C3.04 38.432 2.912 37.952 2.976 37.184C3.104 36.352 3.552 35.68 4.32 35.168C5.216 35.168 6.528 34.624 8.256 33.536C8.448 33.536 9.024 33.216 9.984 32.576L11.712 32C11.904 31.808 12.704 31.456 14.112 30.944C14.432 30.944 14.944 30.784 15.648 30.464C16.352 30.08 17.088 29.856 17.856 29.792C18.496 29.728 19.776 29.568 21.696 29.312C23.68 28.992 25.344 29.024 26.688 29.408C27.52 29.408 28.416 29.568 29.376 29.888C30.912 29.888 32.64 30.4 34.56 31.424C35.008 31.424 35.648 31.712 36.48 32.288L38.304 33.152L40.704 35.072C42.048 36.16 43.264 37.536 44.352 39.2C45.12 39.968 45.408 40.96 45.216 42.176C44.32 47.744 40.448 53.28 33.6 58.784L30.816 60.032L26.112 63.008C27.712 65.248 29.792 67.872 32.352 70.88C32.544 71.328 33.28 72.224 34.56 73.568L37.824 77.6L38.976 79.328L41.568 82.208C41.76 82.656 42.304 83.2 43.2 83.84L44.832 85.376C46.304 86.528 46.912 87.84 46.656 89.312C46.4 90.784 45.504 91.552 43.968 91.616L41.664 91.424L37.056 90.176L35.424 88.64ZM62.7038 31.808C66.9918 31.808 69.9998 32.672 71.7278 34.4C71.7278 35.488 70.9918 37.696 69.5198 41.024C69.2638 42.112 68.8478 42.976 68.2718 43.616L67.0238 44.864C66.7038 45.056 66.3838 45.152 66.0638 45.152C63.7598 45.728 61.9678 45.28 60.6878 43.808C60.4318 43.424 60.1118 43.136 59.7278 42.944C59.4078 42.752 59.1518 42.176 58.9598 41.216C58.3838 40.384 58.0958 39.744 58.0958 39.296C57.9678 35.328 59.4078 32.832 62.4158 31.808H62.7038ZM61.9358 54.464C62.5758 54.144 64.0798 54.464 66.4478 55.424C66.7038 55.68 67.0878 55.936 67.5998 56.192L69.1358 57.44C69.3918 57.696 69.5198 58.112 69.5198 58.688V67.136C69.5198 68.416 69.4558 69.568 69.3278 70.592V71.168C69.1358 73.792 69.2958 79.712 69.8078 88.928C69.9998 90.72 69.5838 91.808 68.5598 92.192C67.4718 92.192 66.7678 92.032 66.4478 91.712C66.1918 91.584 65.9678 91.52 65.7758 91.52H65.1038L64.5278 91.712C64.3358 91.712 63.9838 91.584 63.4718 91.328C62.9598 91.008 62.6078 90.688 62.4158 90.368C62.2878 90.048 62.0318 89.856 61.6478 89.792C60.9438 89.536 60.5598 89.056 60.4958 88.352C59.5998 86.624 59.1198 85.6 59.0558 85.28C59.0558 84.96 58.9598 84.608 58.7678 84.224L58.2878 75.872C58.2878 74.912 58.3518 74.176 58.4798 73.664V71.36C58.5438 70.656 58.6078 69.376 58.6718 67.52C58.7358 65.6 58.8318 64.064 58.9598 62.912C58.8318 61.248 58.7678 60.128 58.7678 59.552C58.7678 58.976 58.7998 58.56 58.8638 58.304C58.1598 57.6 58.1918 56.64 58.9598 55.424C59.7918 54.784 60.5918 54.464 61.3598 54.464H61.9358ZM90.3098 29.888C90.3738 29.824 90.9818 29.728 92.1338 29.6C93.9898 29.28 95.2698 29.408 95.9738 29.984C96.7418 30.496 97.2858 31.072 97.6058 31.712C97.7338 33.76 97.4458 36.416 96.7418 39.68C96.0378 41.792 95.4298 43.36 94.9178 44.384L93.9578 45.824C93.7658 46.336 93.3498 46.88 92.7098 47.456C92.0698 48.032 91.5898 48.32 91.2698 48.32C91.0138 48.256 90.5338 48.032 89.8298 47.648C89.1898 47.2 88.8058 46.88 88.6778 46.688C88.6138 46.496 88.5498 46.272 88.4858 46.016L88.0058 44.096L86.0858 41.696C85.7018 40.928 85.5098 40.16 85.5098 39.392C85.3178 37.6 85.5418 36.224 86.1818 35.264C86.1818 35.136 86.2778 34.816 86.4698 34.304C86.7898 32.896 88.0698 31.424 90.3098 29.888ZM87.4298 72.992C87.4298 72.416 87.5258 71.648 87.7178 70.688C87.9738 69.664 88.0378 68.96 87.9098 68.576C87.8458 68.192 87.8458 67.104 87.9098 65.312C88.1018 64.544 88.1338 63.68 88.0058 62.72C87.5578 61.312 87.4298 60.288 87.6218 59.648C87.8138 59.008 88.2298 58.304 88.8698 57.536C89.5098 56.704 90.2138 56.128 90.9818 55.808C91.7498 55.488 92.9018 55.52 94.4378 55.904C94.8218 56.096 95.4618 56.736 96.3578 57.824C96.5498 58.016 96.7738 58.752 97.0298 60.032C97.3498 61.312 97.5418 62.72 97.6058 64.256C97.7338 65.728 97.8298 67.904 97.8938 70.784C97.9578 73.6 98.0858 77.408 98.2778 82.208C98.4698 86.944 98.5018 89.888 98.3738 91.04C98.3098 92.192 97.8938 93.056 97.1258 93.632C96.4218 94.272 95.7818 94.4 95.2058 94.016C94.6938 93.696 94.1498 93.472 93.5738 93.344C92.5498 93.344 91.6538 92.928 90.8858 92.096C90.6298 92.032 90.0218 91.744 89.0618 91.232C88.1018 90.656 87.4938 89.632 87.2378 88.16C86.9178 87.52 86.8218 85.44 86.9498 81.92V78.464L87.4298 75.2V72.992ZM114.268 56.384L113.98 55.136C113.98 55.072 113.98 54.816 113.98 54.368C114.044 53.856 114.012 53.248 113.884 52.544C113.884 50.944 113.852 49.76 113.788 48.992C113.596 48.736 113.5 47.488 113.5 45.248C113.308 43.008 113.34 40.864 113.596 38.816C113.596 38.176 113.948 36.48 114.652 33.728C115.356 32.32 115.708 31.52 115.708 31.328C116.028 30.688 116.668 29.92 117.628 29.024L119.548 28.064C120.508 27.68 122.172 27.776 124.54 28.352L126.652 28.832C126.652 29.92 126.524 31.296 126.268 32.96C126.204 34.752 125.948 37.28 125.5 40.544C124.604 47.072 124.156 54.144 124.156 61.76L124.54 63.296C126.396 61.888 128.06 60.448 129.532 58.976C131.068 57.504 132.06 56.64 132.508 56.384C132.572 56.32 133.308 55.712 134.716 54.56C136.38 53.216 137.308 52.384 137.5 52.064C138.716 50.464 140.188 49.248 141.916 48.416C143.068 48.416 144.092 48.704 144.988 49.28C146.012 50.176 146.524 50.944 146.524 51.584C146.524 52.224 146.428 52.736 146.236 53.12C146.108 53.44 145.852 53.856 145.468 54.368C145.084 54.88 144.732 55.456 144.412 56.096C143.58 57.568 141.852 59.616 139.228 62.24C137.436 64.16 136.06 65.536 135.1 66.368C134.524 67.008 133.116 68.064 130.876 69.536C130.94 69.664 131.068 69.92 131.26 70.304C131.516 70.624 131.772 71.04 132.028 71.552C134.716 74.496 137.02 76.48 138.94 77.504C139.708 78.272 140.508 78.752 141.34 78.944C141.34 79.008 141.692 79.264 142.396 79.712L142.972 79.904C144.38 80.608 145.308 80.96 145.756 80.96C147.804 81.344 148.828 82.048 148.828 83.072C148.828 84.032 148.316 84.768 147.292 85.28C147.292 85.408 146.332 86.048 144.412 87.2C144.156 87.136 143.612 87.328 142.78 87.776C140.412 88.544 137.692 88.224 134.62 86.816C132.892 86.048 131.452 84.832 130.3 83.168L128.092 81.44C128.028 81.248 126.94 80.032 124.828 77.792L125.212 80.768L125.692 83.648C125.692 85.696 125.82 87.328 126.076 88.544C126.332 89.76 126.076 90.624 125.308 91.136C124.604 91.648 123.292 91.936 121.372 92C119.516 92.064 118.108 91.616 117.148 90.656C116.892 90.464 116.636 89.664 116.38 88.256C116.188 86.784 115.996 85.76 115.804 85.184C114.524 81.28 114.012 77.92 114.268 75.104L114.172 72.224C114.236 71.968 114.268 71.232 114.268 70.016C114.908 66.496 114.908 61.952 114.268 56.384ZM166.685 75.296C166.365 77.536 166.205 79.616 166.205 81.536C166.205 83.456 166.333 84.8 166.589 85.568C166.653 86.144 166.781 86.528 166.973 86.72C167.293 86.848 167.741 86.848 168.317 86.72C169.213 86.336 169.661 85.92 169.661 85.472C171.517 83.68 172.573 82.496 172.829 81.92C173.085 81.344 173.277 80.992 173.405 80.864C173.661 80.544 173.821 80.128 173.885 79.616C174.205 79.296 174.397 79.072 174.461 78.944C174.397 78.752 174.525 78.208 174.845 77.312C174.589 76.864 174.589 76.544 174.845 76.352C175.165 76.096 175.325 75.424 175.325 74.336L175.709 71.264C175.709 70.88 175.741 70.592 175.805 70.4C175.741 70.144 175.741 69.76 175.805 69.248C175.933 68.672 175.965 67.776 175.901 66.56C175.837 65.344 175.613 64.544 175.229 64.16L175.037 63.584C174.909 63.136 174.397 62.816 173.501 62.624L172.733 62.24C172.925 62.624 172.733 63.136 172.157 63.776C169.661 67.168 167.837 71.008 166.685 75.296ZM160.061 65.024C160.125 64.512 160.317 64.032 160.637 63.584L160.541 63.008C160.797 62.112 160.957 61.6 161.021 61.472C161.085 61.344 161.181 61.344 161.309 61.472C161.245 61.216 161.277 61.024 161.405 60.896C161.597 60.32 161.885 59.648 162.269 58.88C162.717 58.112 162.973 57.632 163.037 57.44C163.421 56.352 164.029 55.648 164.861 55.328C164.861 54.816 165.757 54.464 167.549 54.272C169.597 53.568 171.261 53.44 172.541 53.888C173.181 53.504 174.141 53.664 175.421 54.368C176.381 54.752 177.405 55.328 178.493 56.096C179.453 56.736 180.253 57.44 180.893 58.208C181.789 58.592 182.365 59.232 182.621 60.128C184.413 64.416 185.309 68.192 185.309 71.456L185.117 72.512C185.117 73.408 185.021 73.984 184.829 74.24C184.701 74.432 184.637 74.752 184.637 75.2C184.765 75.264 184.765 75.552 184.637 76.064C184.637 76.384 184.125 78.464 183.101 82.304L181.565 85.472C181.565 85.6 181.405 85.824 181.085 86.144V86.72C181.085 86.848 180.925 87.104 180.605 87.488C179.965 88.768 179.325 89.728 178.685 90.368C177.661 92.032 176.797 93.248 176.093 94.016L175.325 95.072L174.173 94.976C173.981 95.296 173.789 95.456 173.597 95.456C173.469 95.456 173.021 95.328 172.253 95.072L173.021 94.976C172.509 95.04 172.093 95.008 171.773 94.88C171.517 94.752 171.261 94.688 171.005 94.688C169.789 94.048 168.925 93.824 168.413 94.016C168.157 94.016 167.197 93.76 165.533 93.248L162.845 92.768L160.733 92C160.157 91.68 159.613 91.296 159.101 90.848C158.909 90.464 158.813 90.144 158.813 89.888L158.237 87.968C158.237 87.84 158.173 87.52 158.045 87.008V84.512C158.173 83.872 158.237 83.264 158.237 82.688C158.109 82.368 158.109 81.696 158.237 80.672V79.616C158.237 79.424 158.269 79.072 158.333 78.56C158.269 78.24 158.301 77.536 158.429 76.448C158.557 75.36 158.621 74.368 158.621 73.472C158.621 72.64 158.749 71.488 159.005 70.016C159.197 69.568 159.325 68.768 159.389 67.616C159.453 66.4 159.677 65.536 160.061 65.024Z" fill="black"/>
<path d="M64.8759 20.8049C64.8759 20.8049 66.6492 21.1571 67.9409 21.8613C71.1168 24.5025 72.3716 29.0613 72.5385 29.2564V28.1999C72.5385 26.4809 71.3079 22.5656 70.2397 20.8049C71.0554 19.1885 71.6907 18.4612 73.3047 17.6356C75.0198 17.1031 84.1517 15.461 89.4389 22.4452C90.0591 23.2645 90.2678 25.3312 90.3813 26.5566L91.1366 21.5679C92.5447 21.0444 93.3434 20.8655 94.7599 20.8049C97.8513 20.8049 102.166 23.3066 104.289 28.5521C105.048 30.4271 107.067 37.0366 104.045 42.0254C99.5135 49.1301 95.4258 51.0674 93.1828 52.0651C83.5889 47.8247 75.3901 47.2133 61.4924 50.5024C48.6521 43.3977 49.4074 25.4384 59.7899 20.8049C61.4104 20.179 63.003 20.4497 64.8759 20.8049Z" fill="#FF9F10"/>
<path d="M105.766 98.3624L103.848 93.0604C100.716 99.4228 92.335 111.087 80.4094 112.148C64.5127 114.268 56.1122 97.0259 53.9594 92L53 101.544C56.408 108.813 58.5924 113.213 63.5533 116.389C67.0281 118.417 70.03 119.729 73.1472 120.631C79.6214 121.995 84.5389 121.736 90.4162 119.57C93.2944 118.51 96.4004 116.053 99.0508 112.148C101.929 107.906 105.766 98.3624 105.766 98.3624Z" fill="#FF9F10"/>
</svg>
