<svg width="199" height="128" viewBox="0 0 199 128" fill="none" xmlns="http://www.w3.org/2000/svg">
<g filter="url(#filter0_d_54_37)">
<path d="M21.104 46.208C21.104 49.216 20.688 53.216 19.856 58.208C20.24 57.888 20.816 57.344 21.584 56.576C22.48 55.68 24.272 54.368 26.96 52.64L28.4 51.584L31.28 50.144L34.448 48.032C34.32 47.904 34.48 47.584 34.928 47.072C36.144 44.96 36.848 43.104 37.04 41.504C37.04 40.672 36.912 40.064 36.656 39.68C36.4 39.232 35.6 38.944 34.256 38.816C34.128 38.688 33.52 38.528 32.432 38.336C29.808 38.336 28.048 38.496 27.152 38.816C26.32 39.136 25.68 39.296 25.232 39.296L23.792 39.68L22.16 39.776L21.776 42.368C21.776 42.432 21.648 43.072 21.392 44.288C21.392 44.736 21.296 45.376 21.104 46.208ZM37.424 88.64C36.464 88.32 35.12 87.392 33.392 85.856C33.072 85.408 32.24 84.64 30.896 83.552C29.616 82.784 28.016 81.28 26.096 79.04C26.096 78.976 25.872 78.464 25.424 77.504C24.656 76.8 23.92 75.392 23.216 73.28C23.152 73.216 23.056 73.088 22.928 72.896C22.8 72.704 22.576 72.416 22.256 72.032C22 71.584 21.712 70.848 21.392 69.824C21.072 68.8 20.432 67.68 19.472 66.464H19.088C19.088 66.848 18.992 67.392 18.8 68.096V70.016L18.224 75.584L16.784 84.896C17.04 85.408 17.04 86.272 16.784 87.488C16.784 88 16.624 88.832 16.304 89.984C15.984 91.136 15.504 91.904 14.864 92.288C14.224 92.672 12.976 92.736 11.12 92.48C10.48 92.224 9.584 91.328 8.432 89.792C7.984 89.6 7.344 88.576 6.512 86.72C6.64 85.568 6.672 84.864 6.608 84.608C6.544 84.288 6.512 83.904 6.512 83.456C6.512 83.008 6.544 82.72 6.608 82.592C6.48 82.72 6.48 82.08 6.608 80.672V80C6.608 79.744 6.8 78.72 7.184 76.928C7.184 75.584 7.184 74.656 7.184 74.144C7.248 73.568 7.472 72.896 7.856 72.128V69.536L7.952 66.944C8.336 65.792 8.528 64.448 8.528 62.912C8.656 62.144 8.72 61.408 8.72 60.704C8.784 59.936 8.912 59.104 9.104 58.208C9.104 56.8 9.2 55.744 9.392 55.04C9.584 54.272 9.68 53.76 9.68 53.504C9.744 53.184 9.808 52.704 9.872 52.064L10.544 47.936L10.832 41.888L9.68 41.12C7.632 40.288 6.192 39.456 5.36 38.624C5.04 38.432 4.912 37.952 4.976 37.184C5.104 36.352 5.552 35.68 6.32 35.168C7.216 35.168 8.528 34.624 10.256 33.536C10.448 33.536 11.024 33.216 11.984 32.576L13.712 32C13.904 31.808 14.704 31.456 16.112 30.944C16.432 30.944 16.944 30.784 17.648 30.464C18.352 30.08 19.088 29.856 19.856 29.792C20.496 29.728 21.776 29.568 23.696 29.312C25.68 28.992 27.344 29.024 28.688 29.408C29.52 29.408 30.416 29.568 31.376 29.888C32.912 29.888 34.64 30.4 36.56 31.424C37.008 31.424 37.648 31.712 38.48 32.288L40.304 33.152L42.704 35.072C44.048 36.16 45.264 37.536 46.352 39.2C47.12 39.968 47.408 40.96 47.216 42.176C46.32 47.744 42.448 53.28 35.6 58.784L32.816 60.032L28.112 63.008C29.712 65.248 31.792 67.872 34.352 70.88C34.544 71.328 35.28 72.224 36.56 73.568L39.824 77.6L40.976 79.328L43.568 82.208C43.76 82.656 44.304 83.2 45.2 83.84L46.832 85.376C48.304 86.528 48.912 87.84 48.656 89.312C48.4 90.784 47.504 91.552 45.968 91.616L43.664 91.424L39.056 90.176L37.424 88.64ZM64.7038 31.808C68.9918 31.808 71.9998 32.672 73.7278 34.4C73.7278 35.488 72.9918 37.696 71.5198 41.024C71.2638 42.112 70.8478 42.976 70.2718 43.616L69.0238 44.864C68.7038 45.056 68.3838 45.152 68.0638 45.152C65.7598 45.728 63.9678 45.28 62.6878 43.808C62.4318 43.424 62.1118 43.136 61.7278 42.944C61.4078 42.752 61.1518 42.176 60.9598 41.216C60.3838 40.384 60.0958 39.744 60.0958 39.296C59.9678 35.328 61.4078 32.832 64.4158 31.808H64.7038ZM63.9358 54.464C64.5758 54.144 66.0798 54.464 68.4478 55.424C68.7038 55.68 69.0878 55.936 69.5998 56.192L71.1358 57.44C71.3918 57.696 71.5198 58.112 71.5198 58.688V67.136C71.5198 68.416 71.4558 69.568 71.3278 70.592V71.168C71.1358 73.792 71.2958 79.712 71.8078 88.928C71.9998 90.72 71.5838 91.808 70.5598 92.192C69.4718 92.192 68.7678 92.032 68.4478 91.712C68.1918 91.584 67.9678 91.52 67.7758 91.52H67.1038L66.5278 91.712C66.3358 91.712 65.9838 91.584 65.4718 91.328C64.9598 91.008 64.6078 90.688 64.4158 90.368C64.2878 90.048 64.0318 89.856 63.6478 89.792C62.9438 89.536 62.5598 89.056 62.4958 88.352C61.5998 86.624 61.1198 85.6 61.0558 85.28C61.0558 84.96 60.9598 84.608 60.7678 84.224L60.2878 75.872C60.2878 74.912 60.3518 74.176 60.4798 73.664V71.36C60.5438 70.656 60.6078 69.376 60.6718 67.52C60.7358 65.6 60.8318 64.064 60.9598 62.912C60.8318 61.248 60.7678 60.128 60.7678 59.552C60.7678 58.976 60.7998 58.56 60.8638 58.304C60.1598 57.6 60.1918 56.64 60.9598 55.424C61.7918 54.784 62.5918 54.464 63.3598 54.464H63.9358ZM92.3098 29.888C92.3738 29.824 92.9818 29.728 94.1338 29.6C95.9898 29.28 97.2698 29.408 97.9738 29.984C98.7418 30.496 99.2858 31.072 99.6058 31.712C99.7338 33.76 99.4458 36.416 98.7418 39.68C98.0378 41.792 97.4298 43.36 96.9178 44.384L95.9578 45.824C95.7658 46.336 95.3498 46.88 94.7098 47.456C94.0698 48.032 93.5898 48.32 93.2698 48.32C93.0138 48.256 92.5338 48.032 91.8298 47.648C91.1898 47.2 90.8058 46.88 90.6778 46.688C90.6138 46.496 90.5498 46.272 90.4858 46.016L90.0058 44.096L88.0858 41.696C87.7018 40.928 87.5098 40.16 87.5098 39.392C87.3178 37.6 87.5418 36.224 88.1818 35.264C88.1818 35.136 88.2778 34.816 88.4698 34.304C88.7898 32.896 90.0698 31.424 92.3098 29.888ZM89.4298 72.992C89.4298 72.416 89.5258 71.648 89.7178 70.688C89.9738 69.664 90.0378 68.96 89.9098 68.576C89.8458 68.192 89.8458 67.104 89.9098 65.312C90.1018 64.544 90.1338 63.68 90.0058 62.72C89.5578 61.312 89.4298 60.288 89.6218 59.648C89.8138 59.008 90.2298 58.304 90.8698 57.536C91.5098 56.704 92.2138 56.128 92.9818 55.808C93.7498 55.488 94.9018 55.52 96.4378 55.904C96.8218 56.096 97.4618 56.736 98.3578 57.824C98.5498 58.016 98.7738 58.752 99.0298 60.032C99.3498 61.312 99.5418 62.72 99.6058 64.256C99.7338 65.728 99.8298 67.904 99.8938 70.784C99.9578 73.6 100.086 77.408 100.278 82.208C100.47 86.944 100.502 89.888 100.374 91.04C100.31 92.192 99.8938 93.056 99.1258 93.632C98.4218 94.272 97.7818 94.4 97.2058 94.016C96.6938 93.696 96.1498 93.472 95.5738 93.344C94.5498 93.344 93.6538 92.928 92.8858 92.096C92.6298 92.032 92.0218 91.744 91.0618 91.232C90.1018 90.656 89.4938 89.632 89.2378 88.16C88.9178 87.52 88.8218 85.44 88.9498 81.92V78.464L89.4298 75.2V72.992ZM116.268 56.384L115.98 55.136C115.98 55.072 115.98 54.816 115.98 54.368C116.044 53.856 116.012 53.248 115.884 52.544C115.884 50.944 115.852 49.76 115.788 48.992C115.596 48.736 115.5 47.488 115.5 45.248C115.308 43.008 115.34 40.864 115.596 38.816C115.596 38.176 115.948 36.48 116.652 33.728C117.356 32.32 117.708 31.52 117.708 31.328C118.028 30.688 118.668 29.92 119.628 29.024L121.548 28.064C122.508 27.68 124.172 27.776 126.54 28.352L128.652 28.832C128.652 29.92 128.524 31.296 128.268 32.96C128.204 34.752 127.948 37.28 127.5 40.544C126.604 47.072 126.156 54.144 126.156 61.76L126.54 63.296C128.396 61.888 130.06 60.448 131.532 58.976C133.068 57.504 134.06 56.64 134.508 56.384C134.572 56.32 135.308 55.712 136.716 54.56C138.38 53.216 139.308 52.384 139.5 52.064C140.716 50.464 142.188 49.248 143.916 48.416C145.068 48.416 146.092 48.704 146.988 49.28C148.012 50.176 148.524 50.944 148.524 51.584C148.524 52.224 148.428 52.736 148.236 53.12C148.108 53.44 147.852 53.856 147.468 54.368C147.084 54.88 146.732 55.456 146.412 56.096C145.58 57.568 143.852 59.616 141.228 62.24C139.436 64.16 138.06 65.536 137.1 66.368C136.524 67.008 135.116 68.064 132.876 69.536C132.94 69.664 133.068 69.92 133.26 70.304C133.516 70.624 133.772 71.04 134.028 71.552C136.716 74.496 139.02 76.48 140.94 77.504C141.708 78.272 142.508 78.752 143.34 78.944C143.34 79.008 143.692 79.264 144.396 79.712L144.972 79.904C146.38 80.608 147.308 80.96 147.756 80.96C149.804 81.344 150.828 82.048 150.828 83.072C150.828 84.032 150.316 84.768 149.292 85.28C149.292 85.408 148.332 86.048 146.412 87.2C146.156 87.136 145.612 87.328 144.78 87.776C142.412 88.544 139.692 88.224 136.62 86.816C134.892 86.048 133.452 84.832 132.3 83.168L130.092 81.44C130.028 81.248 128.94 80.032 126.828 77.792L127.212 80.768L127.692 83.648C127.692 85.696 127.82 87.328 128.076 88.544C128.332 89.76 128.076 90.624 127.308 91.136C126.604 91.648 125.292 91.936 123.372 92C121.516 92.064 120.108 91.616 119.148 90.656C118.892 90.464 118.636 89.664 118.38 88.256C118.188 86.784 117.996 85.76 117.804 85.184C116.524 81.28 116.012 77.92 116.268 75.104L116.172 72.224C116.236 71.968 116.268 71.232 116.268 70.016C116.908 66.496 116.908 61.952 116.268 56.384ZM168.685 75.296C168.365 77.536 168.205 79.616 168.205 81.536C168.205 83.456 168.333 84.8 168.589 85.568C168.653 86.144 168.781 86.528 168.973 86.72C169.293 86.848 169.741 86.848 170.317 86.72C171.213 86.336 171.661 85.92 171.661 85.472C173.517 83.68 174.573 82.496 174.829 81.92C175.085 81.344 175.277 80.992 175.405 80.864C175.661 80.544 175.821 80.128 175.885 79.616C176.205 79.296 176.397 79.072 176.461 78.944C176.397 78.752 176.525 78.208 176.845 77.312C176.589 76.864 176.589 76.544 176.845 76.352C177.165 76.096 177.325 75.424 177.325 74.336L177.709 71.264C177.709 70.88 177.741 70.592 177.805 70.4C177.741 70.144 177.741 69.76 177.805 69.248C177.933 68.672 177.965 67.776 177.901 66.56C177.837 65.344 177.613 64.544 177.229 64.16L177.037 63.584C176.909 63.136 176.397 62.816 175.501 62.624L174.733 62.24C174.925 62.624 174.733 63.136 174.157 63.776C171.661 67.168 169.837 71.008 168.685 75.296ZM162.061 65.024C162.125 64.512 162.317 64.032 162.637 63.584L162.541 63.008C162.797 62.112 162.957 61.6 163.021 61.472C163.085 61.344 163.181 61.344 163.309 61.472C163.245 61.216 163.277 61.024 163.405 60.896C163.597 60.32 163.885 59.648 164.269 58.88C164.717 58.112 164.973 57.632 165.037 57.44C165.421 56.352 166.029 55.648 166.861 55.328C166.861 54.816 167.757 54.464 169.549 54.272C171.597 53.568 173.261 53.44 174.541 53.888C175.181 53.504 176.141 53.664 177.421 54.368C178.381 54.752 179.405 55.328 180.493 56.096C181.453 56.736 182.253 57.44 182.893 58.208C183.789 58.592 184.365 59.232 184.621 60.128C186.413 64.416 187.309 68.192 187.309 71.456L187.117 72.512C187.117 73.408 187.021 73.984 186.829 74.24C186.701 74.432 186.637 74.752 186.637 75.2C186.765 75.264 186.765 75.552 186.637 76.064C186.637 76.384 186.125 78.464 185.101 82.304L183.565 85.472C183.565 85.6 183.405 85.824 183.085 86.144V86.72C183.085 86.848 182.925 87.104 182.605 87.488C181.965 88.768 181.325 89.728 180.685 90.368C179.661 92.032 178.797 93.248 178.093 94.016L177.325 95.072L176.173 94.976C175.981 95.296 175.789 95.456 175.597 95.456C175.469 95.456 175.021 95.328 174.253 95.072L175.021 94.976C174.509 95.04 174.093 95.008 173.773 94.88C173.517 94.752 173.261 94.688 173.005 94.688C171.789 94.048 170.925 93.824 170.413 94.016C170.157 94.016 169.197 93.76 167.533 93.248L164.845 92.768L162.733 92C162.157 91.68 161.613 91.296 161.101 90.848C160.909 90.464 160.813 90.144 160.813 89.888L160.237 87.968C160.237 87.84 160.173 87.52 160.045 87.008V84.512C160.173 83.872 160.237 83.264 160.237 82.688C160.109 82.368 160.109 81.696 160.237 80.672V79.616C160.237 79.424 160.269 79.072 160.333 78.56C160.269 78.24 160.301 77.536 160.429 76.448C160.557 75.36 160.621 74.368 160.621 73.472C160.621 72.64 160.749 71.488 161.005 70.016C161.197 69.568 161.325 68.768 161.389 67.616C161.453 66.4 161.677 65.536 162.061 65.024Z" fill="black"/>
<path d="M66.495 21.512C66.495 21.512 68.3434 21.8442 69.6897 22.5086C73 25 74.3079 29.3003 74.4819 29.4843V28.4878C74.4819 26.8662 73.1992 23.1729 72.0858 21.512C72.936 19.9873 73.5983 19.3012 75.2806 18.5224C77.0682 18.0201 86.5867 16.471 92.0976 23.0593C92.7441 23.8322 92.9617 25.7817 93.08 26.9376L93.8673 22.2317C95.3349 21.738 96.1674 21.5692 97.6439 21.512C100.866 21.512 105.364 23.8719 107.576 28.82C108.367 30.5887 110.472 36.8235 107.322 41.5294C102.599 48.2313 98.3379 50.0589 96 51C86 47 77.4542 46.4232 62.9682 49.5259C49.5844 42.824 50.3717 25.8829 61.1936 21.512C62.8828 20.9216 64.5428 21.177 66.495 21.512Z" fill="#FFAA2C"/>
<path d="M109 98.0017L107 93.0003C103.736 99.0019 95 110.005 82.5696 111.005C66 113.006 57.2439 96.741 55 92L54 101.003C57.5522 107.859 59.8291 112.011 65 115.006C68.6219 116.919 71.7509 118.157 75 119.008C81.7482 120.295 86.8739 120.05 93 118.007C96 117.007 99.2375 114.69 102 111.005C105 107.004 109 98.0017 109 98.0017Z" fill="#FFAA2C"/>
</g>
<defs>
<filter id="filter0_d_54_37" x="0.880005" y="18" width="190.429" height="109.8" filterUnits="userSpaceOnUse" color-interpolation-filters="sRGB">
<feFlood flood-opacity="0" result="BackgroundImageFix"/>
<feColorMatrix in="SourceAlpha" type="matrix" values="0 0 0 0 0 0 0 0 0 0 0 0 0 0 0 0 0 0 127 0" result="hardAlpha"/>
<feOffset dy="4"/>
<feGaussianBlur stdDeviation="2"/>
<feComposite in2="hardAlpha" operator="out"/>
<feColorMatrix type="matrix" values="0 0 0 0 0 0 0 0 0 0 0 0 0 0 0 0 0 0 0.25 0"/>
<feBlend mode="normal" in2="BackgroundImageFix" result="effect1_dropShadow_54_37"/>
<feBlend mode="normal" in="SourceGraphic" in2="effect1_dropShadow_54_37" result="shape"/>
</filter>
</defs>
</svg>
